<?xml version="1.0" encoding="UTF-8"?>
<svg width="16px" height="11px" viewBox="0 0 16 11" version="1.1" xmlns="http://www.w3.org/2000/svg" xmlns:xlink="http://www.w3.org/1999/xlink">
    <!-- Generator: Sketch 56.3 (81716) - https://sketch.com -->
    <title>Icons/arrow-left</title>
    <desc>Created with Sketch.</desc>
    <g id="Page-1" stroke="none" stroke-width="1" fill="none" fill-rule="evenodd">
        <g id="Installation-confirmation" transform="translate(-220.000000, -58.000000)" fill="#000000">
            <g id="Icons/arrow-left" transform="translate(228.000000, 63.000000) scale(-1, 1) translate(-228.000000, -63.000000) translate(215.000000, 50.000000)">
                <path d="M11.9091577,17.0021941 L9.56723358,14.7412651 L20.1428586,14.7412651 C20.6162506,14.7412651 21,14.3707821 21,13.9137553 L21,13.0862456 C21,12.6292189 20.6162506,12.2587358 20.1428586,12.2587358 L9.56723358,12.2587358 L11.9091577,9.9978069 C12.2439072,9.67462984 12.2439072,9.15067829 11.9091577,8.82753566 L11.3030516,8.2423828 C10.9683019,7.91920573 10.4255886,7.91920573 10.0908746,8.2423828 L5.25106208,12.914848 C4.91631264,13.238025 4.91631264,13.7619425 5.25106208,14.0851188 L10.0908756,18.7576177 C10.4256251,19.0807941 10.9683385,19.0807941 11.3030527,18.7576177 L11.9091588,18.1724646 C12.2439086,17.8493217 12.2439086,17.3253704 11.9091588,17.0021931 L11.9091577,17.0021941 Z" id="🎨-Color"></path>
            </g>
        </g>
    </g>
</svg>